# xmcd
#
# Track frame offsets: 
#        150
#        15219
#        32235
#        57293
#        72770
#
# Disc length: 1204 seconds
#
# Revision: 0
# Processed by: cddbd v1.5.2PL0 Copyright (c) Steve Scherf et al.
# Submitted via: ExactAudioCopy v0.99pb3
#
DISCID=3504b205
DTITLE=Blanche - What This Town Needs EP
DYEAR=2006
DGENRE=Americana
TTITLE0=What This Town Needs
TTITLE1=Child Of The Moon
TTITLE2=Scar Beneath The Skin
TTITLE3=Never Again
TTITLE4=Someday...
EXTD=
EXTT0=
EXTT1=
EXTT2=
EXTT3=
EXTT4=
PLAYORDER=
